<svg width="338" height="48" xmlns="http://www.w3.org/2000/svg">
 <!-- Created with Method Draw - http://github.com/duopixel/Method-Draw/ -->
 <g>
  <title>background</title>
  <rect fill="none" id="canvas_background" height="50" width="340" y="-1" x="-1"/>
 </g>
 <g>
  <title>Layer 1</title>
  <ellipse stroke="#ffffff" ry="8" rx="8" id="svg_2" cy="8.75" cx="328.75" stroke-width="1.5" fill="#ffffff"/>
  <ellipse stroke="#ffffff" ry="8" rx="8" id="svg_4" cy="8.75" cx="48.75" stroke-width="1.5" fill="#ffffff"/>
  <ellipse ry="8" rx="8" id="svg_5" cy="8.75" cx="88.75" stroke-width="1.5" stroke="#ffffff" fill="#ffffff"/>
  <ellipse ry="8" rx="8" id="svg_6" cy="8.75" cx="128.75" stroke-width="1.5" stroke="#ffffff" fill="#ffffff"/>
  <ellipse ry="8" rx="8" id="svg_7" cy="8.75" cx="168.75" stroke-width="1.5" stroke="#ffffff" fill="#ffffff"/>
  <ellipse ry="8" rx="8" id="svg_8" cy="8.75" cx="208.75" stroke-width="1.5" stroke="#ffffff" fill="#ffffff"/>
  <ellipse ry="8" rx="8" id="svg_9" cy="8.75" cx="248.75" stroke-width="1.5" stroke="#ffffff" fill="#ffffff"/>
  <ellipse ry="8" rx="8" id="svg_10" cy="8.75" cx="288.75" stroke-width="1.5" stroke="#ffffff" fill="#ffffff"/>
  <ellipse ry="8" rx="8" id="svg_11" cy="38.75" cx="8.75" stroke-width="1.5" stroke="#ffffff" fill="#ffffff"/>
  <ellipse ry="8" rx="8" id="svg_12" cy="38.75" cx="48.75" stroke-width="1.5" stroke="#ffffff" fill="#ffffff"/>
  <ellipse ry="8" rx="8" id="svg_13" cy="38.75" cx="88.75" stroke-width="1.5" stroke="#ffffff" fill="#ffffff"/>
  <ellipse ry="8" rx="8" id="svg_14" cy="38.75" cx="128.75" stroke-width="1.5" stroke="#ffffff" fill="#ffffff"/>
  <ellipse ry="8" rx="8" id="svg_15" cy="38.75" cx="168.75" stroke-width="1.5" stroke="#ffffff" fill="#ffffff"/>
  <ellipse ry="8" rx="8" id="svg_16" cy="38.75" cx="208.75" stroke-width="1.5" stroke="#ffffff" fill="#ffffff"/>
  <ellipse ry="8" rx="8" id="svg_17" cy="38.75" cx="248.75" stroke-width="1.5" stroke="#ffffff" fill="#ffffff"/>
  <ellipse ry="8" rx="8" id="svg_18" cy="38.75" cx="288.75" stroke-width="1.5" stroke="#ffffff" fill="#ffffff"/>
 </g>
</svg>